<svg width="429" height="166" viewBox="0 0 429 166" fill="none" xmlns="http://www.w3.org/2000/svg">
<g clip-path="url(#clip0_3657_22005)">
<rect width="429" height="165.956" rx="12" fill="#EDF7F7"/>
<line x1="105.5" y1="-15" x2="105.5" y2="180" stroke="#D1EBEC"/>
<line x1="215.5" y1="-15" x2="215.5" y2="180" stroke="#D1EBEC"/>
<line x1="325.5" y1="-15" x2="325.5" y2="180" stroke="#D1EBEC"/>
<g filter="url(#filter0_d_3657_22005)">
<path d="M137.643 70.916C120.603 64.2946 133.806 64.3456 94.7217 50.7477C85.9539 47.6972 71.1385 39.7852 61.9279 37.7822C30.0802 30.856 -0.163001 19.5453 -8 20.0141V178H427V163.594C413.617 159.565 374.433 129.019 310.293 121.336C266.667 116.11 234.258 103.974 206.606 97.3262C178.955 90.6783 157.416 78.5992 137.643 70.916Z" stroke="#F63501" stroke-width="5.00292"/>
</g>
</g>
<defs>
<filter id="filter0_d_3657_22005" x="-15.5044" y="17.499" width="450.009" height="178.011" filterUnits="userSpaceOnUse" color-interpolation-filters="sRGB">
<feFlood flood-opacity="0" result="BackgroundImageFix"/>
<feColorMatrix in="SourceAlpha" type="matrix" values="0 0 0 0 0 0 0 0 0 0 0 0 0 0 0 0 0 0 127 0" result="hardAlpha"/>
<feOffset dy="10.0058"/>
<feGaussianBlur stdDeviation="2.50146"/>
<feColorMatrix type="matrix" values="0 0 0 0 0.85098 0 0 0 0 0.803922 0 0 0 0 0.815686 0 0 0 1 0"/>
<feBlend mode="normal" in2="BackgroundImageFix" result="effect1_dropShadow_3657_22005"/>
<feBlend mode="normal" in="SourceGraphic" in2="effect1_dropShadow_3657_22005" result="shape"/>
</filter>
<clipPath id="clip0_3657_22005">
<rect width="429" height="165.956" rx="12" fill="white"/>
</clipPath>
</defs>
</svg>
